<mxfile host="app.diagrams.net" modified="2022-11-02T17:55:31.825Z" agent="5.0 (Macintosh; Intel Mac OS X 10_15_7) AppleWebKit/537.36 (KHTML, like Gecko) Chrome/106.0.0.0 Safari/537.36" etag="dZcfY7-oLR1I4CSGcDBy" version="20.5.1" type="github">
  <diagram id="prtHgNgQTEPvFCAcTncT" name="Page-1">
    <mxGraphModel dx="543" dy="577" grid="1" gridSize="10" guides="1" tooltips="1" connect="1" arrows="1" fold="1" page="1" pageScale="1" pageWidth="827" pageHeight="1169" math="0" shadow="0">
      <root>
        <mxCell id="0" />
        <mxCell id="1" parent="0" />
        <mxCell id="dNxyNK7c78bLwvsdeMH5-19" value="Aging Tickets" style="swimlane;html=1;childLayout=stackLayout;resizeParent=1;resizeParentMax=0;horizontal=0;startSize=20;horizontalStack=0;" parent="1" vertex="1">
          <mxGeometry x="60" y="60" width="740" height="490" as="geometry" />
        </mxCell>
        <mxCell id="dNxyNK7c78bLwvsdeMH5-20" value="Automation" style="swimlane;html=1;startSize=20;horizontal=0;fillColor=#f5f5f5;fontColor=#333333;strokeColor=#666666;" parent="dNxyNK7c78bLwvsdeMH5-19" vertex="1">
          <mxGeometry x="20" width="720" height="120" as="geometry" />
        </mxCell>
        <mxCell id="dNxyNK7c78bLwvsdeMH5-25" value="" style="edgeStyle=orthogonalEdgeStyle;rounded=0;orthogonalLoop=1;jettySize=auto;html=1;" parent="dNxyNK7c78bLwvsdeMH5-20" source="dNxyNK7c78bLwvsdeMH5-23" target="dNxyNK7c78bLwvsdeMH5-24" edge="1">
          <mxGeometry relative="1" as="geometry" />
        </mxCell>
        <mxCell id="dNxyNK7c78bLwvsdeMH5-23" value="Weekly Email" style="ellipse;whiteSpace=wrap;html=1;fillColor=#f5f5f5;fontColor=#333333;strokeColor=#666666;" parent="dNxyNK7c78bLwvsdeMH5-20" vertex="1">
          <mxGeometry x="40" y="40" width="50" height="50" as="geometry" />
        </mxCell>
        <mxCell id="dNxyNK7c78bLwvsdeMH5-24" value="All tickets for each project are sent via email." style="rounded=0;whiteSpace=wrap;html=1;fontFamily=Helvetica;fontSize=12;fontColor=#333333;align=center;fillColor=#f5f5f5;strokeColor=#666666;" parent="dNxyNK7c78bLwvsdeMH5-20" vertex="1">
          <mxGeometry x="120" y="35" width="80" height="60" as="geometry" />
        </mxCell>
        <mxCell id="dNxyNK7c78bLwvsdeMH5-21" value="Elevation Team" style="swimlane;html=1;startSize=20;horizontal=0;fillColor=#dae8fc;strokeColor=#6c8ebf;" parent="dNxyNK7c78bLwvsdeMH5-19" vertex="1">
          <mxGeometry x="20" y="120" width="720" height="120" as="geometry" />
        </mxCell>
        <mxCell id="dNxyNK7c78bLwvsdeMH5-29" value="" style="edgeStyle=orthogonalEdgeStyle;rounded=0;orthogonalLoop=1;jettySize=auto;html=1;endArrow=classic;endFill=1;" parent="dNxyNK7c78bLwvsdeMH5-21" source="dNxyNK7c78bLwvsdeMH5-26" target="dNxyNK7c78bLwvsdeMH5-28" edge="1">
          <mxGeometry relative="1" as="geometry" />
        </mxCell>
        <mxCell id="dNxyNK7c78bLwvsdeMH5-26" value="Review email" style="rounded=0;whiteSpace=wrap;html=1;fontFamily=Helvetica;fontSize=12;align=center;fillColor=#dae8fc;strokeColor=#6c8ebf;" parent="dNxyNK7c78bLwvsdeMH5-21" vertex="1">
          <mxGeometry x="120" y="30" width="80" height="60" as="geometry" />
        </mxCell>
        <mxCell id="V2aYn66x58N84pKogv1D-10" value="" style="edgeStyle=orthogonalEdgeStyle;rounded=0;orthogonalLoop=1;jettySize=auto;html=1;exitX=0.5;exitY=0;exitDx=0;exitDy=0;entryX=0;entryY=0.5;entryDx=0;entryDy=0;" edge="1" parent="dNxyNK7c78bLwvsdeMH5-21" source="dNxyNK7c78bLwvsdeMH5-28" target="V2aYn66x58N84pKogv1D-9">
          <mxGeometry relative="1" as="geometry">
            <Array as="points">
              <mxPoint x="280" y="10" />
              <mxPoint x="360" y="10" />
              <mxPoint x="360" y="60" />
            </Array>
          </mxGeometry>
        </mxCell>
        <mxCell id="V2aYn66x58N84pKogv1D-11" value="No" style="edgeLabel;html=1;align=center;verticalAlign=middle;resizable=0;points=[];" vertex="1" connectable="0" parent="V2aYn66x58N84pKogv1D-10">
          <mxGeometry x="-0.6" y="-3" relative="1" as="geometry">
            <mxPoint as="offset" />
          </mxGeometry>
        </mxCell>
        <mxCell id="dNxyNK7c78bLwvsdeMH5-28" value="Blocked by S&amp;amp;O ?" style="rhombus;whiteSpace=wrap;html=1;fontFamily=Helvetica;fontSize=12;align=center;fillColor=#dae8fc;strokeColor=#6c8ebf;" parent="dNxyNK7c78bLwvsdeMH5-21" vertex="1">
          <mxGeometry x="240" y="20" width="80" height="80" as="geometry" />
        </mxCell>
        <mxCell id="V2aYn66x58N84pKogv1D-22" value="" style="edgeStyle=orthogonalEdgeStyle;rounded=0;orthogonalLoop=1;jettySize=auto;html=1;exitX=0.5;exitY=0;exitDx=0;exitDy=0;entryX=0;entryY=0.5;entryDx=0;entryDy=0;" edge="1" parent="dNxyNK7c78bLwvsdeMH5-21" source="V2aYn66x58N84pKogv1D-9" target="V2aYn66x58N84pKogv1D-21">
          <mxGeometry relative="1" as="geometry">
            <Array as="points">
              <mxPoint x="410" y="10" />
              <mxPoint x="490" y="10" />
              <mxPoint x="490" y="59" />
            </Array>
          </mxGeometry>
        </mxCell>
        <mxCell id="V2aYn66x58N84pKogv1D-27" value="No" style="edgeLabel;html=1;align=center;verticalAlign=middle;resizable=0;points=[];" vertex="1" connectable="0" parent="V2aYn66x58N84pKogv1D-22">
          <mxGeometry x="-0.64" y="-2" relative="1" as="geometry">
            <mxPoint as="offset" />
          </mxGeometry>
        </mxCell>
        <mxCell id="V2aYn66x58N84pKogv1D-9" value="Blocked by External ?" style="rhombus;whiteSpace=wrap;html=1;fontFamily=Helvetica;fontSize=12;align=center;fillColor=#dae8fc;strokeColor=#6c8ebf;" vertex="1" parent="dNxyNK7c78bLwvsdeMH5-21">
          <mxGeometry x="370" y="20" width="80" height="80" as="geometry" />
        </mxCell>
        <mxCell id="V2aYn66x58N84pKogv1D-21" value="Assign resources and work ticket." style="whiteSpace=wrap;html=1;fillColor=#dae8fc;strokeColor=#6c8ebf;" vertex="1" parent="dNxyNK7c78bLwvsdeMH5-21">
          <mxGeometry x="508" y="29" width="120" height="60" as="geometry" />
        </mxCell>
        <mxCell id="dNxyNK7c78bLwvsdeMH5-22" value="Service Ops" style="swimlane;html=1;startSize=20;horizontal=0;fillColor=#ffe6cc;strokeColor=#d79b00;" parent="dNxyNK7c78bLwvsdeMH5-19" vertex="1">
          <mxGeometry x="20" y="240" width="720" height="130" as="geometry" />
        </mxCell>
        <mxCell id="V2aYn66x58N84pKogv1D-6" value="Review ticket with Elevation team to unblock." style="whiteSpace=wrap;html=1;fillColor=#ffe6cc;strokeColor=#d79b00;" vertex="1" parent="dNxyNK7c78bLwvsdeMH5-22">
          <mxGeometry x="220" y="30" width="120" height="60" as="geometry" />
        </mxCell>
        <mxCell id="V2aYn66x58N84pKogv1D-12" value="External Team" style="swimlane;html=1;startSize=20;horizontal=0;fillColor=#d5e8d4;strokeColor=#82b366;" vertex="1" parent="dNxyNK7c78bLwvsdeMH5-19">
          <mxGeometry x="20" y="370" width="720" height="120" as="geometry" />
        </mxCell>
        <mxCell id="V2aYn66x58N84pKogv1D-14" value="Review ticket with Elevation team to unblock." style="whiteSpace=wrap;html=1;fillColor=#d5e8d4;strokeColor=#82b366;" vertex="1" parent="V2aYn66x58N84pKogv1D-12">
          <mxGeometry x="350" y="30" width="120" height="60" as="geometry" />
        </mxCell>
        <mxCell id="V2aYn66x58N84pKogv1D-7" value="Yes" style="edgeStyle=orthogonalEdgeStyle;rounded=0;orthogonalLoop=1;jettySize=auto;html=1;" edge="1" parent="dNxyNK7c78bLwvsdeMH5-19" source="dNxyNK7c78bLwvsdeMH5-28" target="V2aYn66x58N84pKogv1D-6">
          <mxGeometry x="-0.7143" relative="1" as="geometry">
            <mxPoint as="offset" />
          </mxGeometry>
        </mxCell>
        <mxCell id="V2aYn66x58N84pKogv1D-15" value="" style="edgeStyle=orthogonalEdgeStyle;rounded=0;orthogonalLoop=1;jettySize=auto;html=1;" edge="1" parent="dNxyNK7c78bLwvsdeMH5-19" source="V2aYn66x58N84pKogv1D-9" target="V2aYn66x58N84pKogv1D-14">
          <mxGeometry relative="1" as="geometry" />
        </mxCell>
        <mxCell id="V2aYn66x58N84pKogv1D-20" value="Yes" style="edgeLabel;html=1;align=center;verticalAlign=middle;resizable=0;points=[];" vertex="1" connectable="0" parent="V2aYn66x58N84pKogv1D-15">
          <mxGeometry x="-0.8608" y="-1" relative="1" as="geometry">
            <mxPoint as="offset" />
          </mxGeometry>
        </mxCell>
        <mxCell id="V2aYn66x58N84pKogv1D-18" style="edgeStyle=orthogonalEdgeStyle;rounded=0;orthogonalLoop=1;jettySize=auto;html=1;entryX=1;entryY=0.5;entryDx=0;entryDy=0;" edge="1" parent="dNxyNK7c78bLwvsdeMH5-19" source="V2aYn66x58N84pKogv1D-14" target="V2aYn66x58N84pKogv1D-9">
          <mxGeometry relative="1" as="geometry">
            <Array as="points">
              <mxPoint x="500" y="430" />
              <mxPoint x="500" y="180" />
            </Array>
          </mxGeometry>
        </mxCell>
        <mxCell id="V2aYn66x58N84pKogv1D-19" style="edgeStyle=orthogonalEdgeStyle;rounded=0;orthogonalLoop=1;jettySize=auto;html=1;entryX=1;entryY=0.5;entryDx=0;entryDy=0;" edge="1" parent="dNxyNK7c78bLwvsdeMH5-19" source="V2aYn66x58N84pKogv1D-6" target="dNxyNK7c78bLwvsdeMH5-28">
          <mxGeometry relative="1" as="geometry">
            <Array as="points">
              <mxPoint x="370" y="300" />
              <mxPoint x="370" y="180" />
            </Array>
          </mxGeometry>
        </mxCell>
        <mxCell id="V2aYn66x58N84pKogv1D-26" style="edgeStyle=orthogonalEdgeStyle;rounded=0;orthogonalLoop=1;jettySize=auto;html=1;entryX=0.5;entryY=0;entryDx=0;entryDy=0;" edge="1" parent="dNxyNK7c78bLwvsdeMH5-19" source="dNxyNK7c78bLwvsdeMH5-24" target="dNxyNK7c78bLwvsdeMH5-26">
          <mxGeometry relative="1" as="geometry" />
        </mxCell>
        <mxCell id="V2aYn66x58N84pKogv1D-24" value="" style="edgeStyle=orthogonalEdgeStyle;rounded=0;orthogonalLoop=1;jettySize=auto;html=1;entryX=0;entryY=0.5;entryDx=0;entryDy=0;" edge="1" parent="1" source="V2aYn66x58N84pKogv1D-21" target="dNxyNK7c78bLwvsdeMH5-32">
          <mxGeometry relative="1" as="geometry">
            <mxPoint x="750" y="230" as="targetPoint" />
          </mxGeometry>
        </mxCell>
        <mxCell id="dNxyNK7c78bLwvsdeMH5-32" value="Close" style="ellipse;whiteSpace=wrap;html=1;fillColor=#dae8fc;strokeColor=#6c8ebf;" parent="1" vertex="1">
          <mxGeometry x="731" y="219" width="40" height="40" as="geometry" />
        </mxCell>
        <mxCell id="V2aYn66x58N84pKogv1D-39" value="Features" style="shape=table;startSize=30;container=1;collapsible=0;childLayout=tableLayout;fontStyle=1;align=center;" vertex="1" parent="1">
          <mxGeometry x="60" y="610" width="440" height="308" as="geometry" />
        </mxCell>
        <mxCell id="V2aYn66x58N84pKogv1D-40" value="" style="shape=tableRow;horizontal=0;startSize=0;swimlaneHead=0;swimlaneBody=0;top=0;left=0;bottom=0;right=0;collapsible=0;dropTarget=0;fillColor=none;points=[[0,0.5],[1,0.5]];portConstraint=eastwest;" vertex="1" parent="V2aYn66x58N84pKogv1D-39">
          <mxGeometry y="30" width="440" height="72" as="geometry" />
        </mxCell>
        <mxCell id="V2aYn66x58N84pKogv1D-41" value="" style="shape=partialRectangle;html=1;whiteSpace=wrap;connectable=0;fillColor=none;top=0;left=0;bottom=0;right=0;overflow=hidden;" vertex="1" parent="V2aYn66x58N84pKogv1D-40">
          <mxGeometry width="100" height="72" as="geometry">
            <mxRectangle width="100" height="72" as="alternateBounds" />
          </mxGeometry>
        </mxCell>
        <mxCell id="V2aYn66x58N84pKogv1D-42" value="Current" style="shape=partialRectangle;html=1;whiteSpace=wrap;connectable=0;fillColor=none;top=0;left=0;bottom=0;right=0;overflow=hidden;" vertex="1" parent="V2aYn66x58N84pKogv1D-40">
          <mxGeometry x="100" width="150" height="72" as="geometry">
            <mxRectangle width="150" height="72" as="alternateBounds" />
          </mxGeometry>
        </mxCell>
        <mxCell id="V2aYn66x58N84pKogv1D-43" value="New" style="shape=partialRectangle;html=1;whiteSpace=wrap;connectable=0;fillColor=none;top=0;left=0;bottom=0;right=0;overflow=hidden;" vertex="1" parent="V2aYn66x58N84pKogv1D-40">
          <mxGeometry x="250" width="190" height="72" as="geometry">
            <mxRectangle width="190" height="72" as="alternateBounds" />
          </mxGeometry>
        </mxCell>
        <mxCell id="V2aYn66x58N84pKogv1D-70" style="shape=tableRow;horizontal=0;startSize=0;swimlaneHead=0;swimlaneBody=0;top=0;left=0;bottom=0;right=0;collapsible=0;dropTarget=0;fillColor=none;points=[[0,0.5],[1,0.5]];portConstraint=eastwest;" vertex="1" parent="V2aYn66x58N84pKogv1D-39">
          <mxGeometry y="102" width="440" height="20" as="geometry" />
        </mxCell>
        <mxCell id="V2aYn66x58N84pKogv1D-71" value="Process Type" style="shape=partialRectangle;html=1;whiteSpace=wrap;connectable=0;fillColor=none;top=0;left=0;bottom=0;right=0;overflow=hidden;" vertex="1" parent="V2aYn66x58N84pKogv1D-70">
          <mxGeometry width="100" height="20" as="geometry">
            <mxRectangle width="100" height="20" as="alternateBounds" />
          </mxGeometry>
        </mxCell>
        <mxCell id="V2aYn66x58N84pKogv1D-72" value="Automated" style="shape=partialRectangle;html=1;whiteSpace=wrap;connectable=0;fillColor=none;top=0;left=0;bottom=0;right=0;overflow=hidden;" vertex="1" parent="V2aYn66x58N84pKogv1D-70">
          <mxGeometry x="100" width="150" height="20" as="geometry">
            <mxRectangle width="150" height="20" as="alternateBounds" />
          </mxGeometry>
        </mxCell>
        <mxCell id="V2aYn66x58N84pKogv1D-73" value="Automated" style="shape=partialRectangle;html=1;whiteSpace=wrap;connectable=0;fillColor=none;top=0;left=0;bottom=0;right=0;overflow=hidden;" vertex="1" parent="V2aYn66x58N84pKogv1D-70">
          <mxGeometry x="250" width="190" height="20" as="geometry">
            <mxRectangle width="190" height="20" as="alternateBounds" />
          </mxGeometry>
        </mxCell>
        <mxCell id="V2aYn66x58N84pKogv1D-44" value="" style="shape=tableRow;horizontal=0;startSize=0;swimlaneHead=0;swimlaneBody=0;top=0;left=0;bottom=0;right=0;collapsible=0;dropTarget=0;fillColor=none;points=[[0,0.5],[1,0.5]];portConstraint=eastwest;" vertex="1" parent="V2aYn66x58N84pKogv1D-39">
          <mxGeometry y="122" width="440" height="20" as="geometry" />
        </mxCell>
        <mxCell id="V2aYn66x58N84pKogv1D-45" value="Email Frequency" style="shape=partialRectangle;html=1;whiteSpace=wrap;connectable=0;fillColor=none;top=0;left=0;bottom=0;right=0;overflow=hidden;" vertex="1" parent="V2aYn66x58N84pKogv1D-44">
          <mxGeometry width="100" height="20" as="geometry">
            <mxRectangle width="100" height="20" as="alternateBounds" />
          </mxGeometry>
        </mxCell>
        <mxCell id="V2aYn66x58N84pKogv1D-46" value="Weekly" style="shape=partialRectangle;html=1;whiteSpace=wrap;connectable=0;fillColor=none;top=0;left=0;bottom=0;right=0;overflow=hidden;" vertex="1" parent="V2aYn66x58N84pKogv1D-44">
          <mxGeometry x="100" width="150" height="20" as="geometry">
            <mxRectangle width="150" height="20" as="alternateBounds" />
          </mxGeometry>
        </mxCell>
        <mxCell id="V2aYn66x58N84pKogv1D-47" value="Weekly" style="shape=partialRectangle;html=1;whiteSpace=wrap;connectable=0;fillColor=none;top=0;left=0;bottom=0;right=0;overflow=hidden;" vertex="1" parent="V2aYn66x58N84pKogv1D-44">
          <mxGeometry x="250" width="190" height="20" as="geometry">
            <mxRectangle width="190" height="20" as="alternateBounds" />
          </mxGeometry>
        </mxCell>
        <mxCell id="V2aYn66x58N84pKogv1D-66" style="shape=tableRow;horizontal=0;startSize=0;swimlaneHead=0;swimlaneBody=0;top=0;left=0;bottom=0;right=0;collapsible=0;dropTarget=0;fillColor=none;points=[[0,0.5],[1,0.5]];portConstraint=eastwest;" vertex="1" parent="V2aYn66x58N84pKogv1D-39">
          <mxGeometry y="142" width="440" height="20" as="geometry" />
        </mxCell>
        <mxCell id="V2aYn66x58N84pKogv1D-67" value="Ticket List" style="shape=partialRectangle;html=1;whiteSpace=wrap;connectable=0;fillColor=none;top=0;left=0;bottom=0;right=0;overflow=hidden;" vertex="1" parent="V2aYn66x58N84pKogv1D-66">
          <mxGeometry width="100" height="20" as="geometry">
            <mxRectangle width="100" height="20" as="alternateBounds" />
          </mxGeometry>
        </mxCell>
        <mxCell id="V2aYn66x58N84pKogv1D-68" value="All" style="shape=partialRectangle;html=1;whiteSpace=wrap;connectable=0;fillColor=none;top=0;left=0;bottom=0;right=0;overflow=hidden;" vertex="1" parent="V2aYn66x58N84pKogv1D-66">
          <mxGeometry x="100" width="150" height="20" as="geometry">
            <mxRectangle width="150" height="20" as="alternateBounds" />
          </mxGeometry>
        </mxCell>
        <mxCell id="V2aYn66x58N84pKogv1D-69" value="Missing goal" style="shape=partialRectangle;html=1;whiteSpace=wrap;connectable=0;fillColor=none;top=0;left=0;bottom=0;right=0;overflow=hidden;" vertex="1" parent="V2aYn66x58N84pKogv1D-66">
          <mxGeometry x="250" width="190" height="20" as="geometry">
            <mxRectangle width="190" height="20" as="alternateBounds" />
          </mxGeometry>
        </mxCell>
        <mxCell id="V2aYn66x58N84pKogv1D-48" value="" style="shape=tableRow;horizontal=0;startSize=0;swimlaneHead=0;swimlaneBody=0;top=0;left=0;bottom=0;right=0;collapsible=0;dropTarget=0;fillColor=none;points=[[0,0.5],[1,0.5]];portConstraint=eastwest;" vertex="1" parent="V2aYn66x58N84pKogv1D-39">
          <mxGeometry y="162" width="440" height="20" as="geometry" />
        </mxCell>
        <mxCell id="V2aYn66x58N84pKogv1D-49" value="Priority Indicator" style="shape=partialRectangle;html=1;whiteSpace=wrap;connectable=0;fillColor=none;top=0;left=0;bottom=0;right=0;overflow=hidden;" vertex="1" parent="V2aYn66x58N84pKogv1D-48">
          <mxGeometry width="100" height="20" as="geometry">
            <mxRectangle width="100" height="20" as="alternateBounds" />
          </mxGeometry>
        </mxCell>
        <mxCell id="V2aYn66x58N84pKogv1D-50" value="Yes" style="shape=partialRectangle;html=1;whiteSpace=wrap;connectable=0;fillColor=none;top=0;left=0;bottom=0;right=0;overflow=hidden;" vertex="1" parent="V2aYn66x58N84pKogv1D-48">
          <mxGeometry x="100" width="150" height="20" as="geometry">
            <mxRectangle width="150" height="20" as="alternateBounds" />
          </mxGeometry>
        </mxCell>
        <mxCell id="V2aYn66x58N84pKogv1D-51" value="No" style="shape=partialRectangle;html=1;whiteSpace=wrap;connectable=0;fillColor=none;top=0;left=0;bottom=0;right=0;overflow=hidden;" vertex="1" parent="V2aYn66x58N84pKogv1D-48">
          <mxGeometry x="250" width="190" height="20" as="geometry">
            <mxRectangle width="190" height="20" as="alternateBounds" />
          </mxGeometry>
        </mxCell>
        <mxCell id="V2aYn66x58N84pKogv1D-74" style="shape=tableRow;horizontal=0;startSize=0;swimlaneHead=0;swimlaneBody=0;top=0;left=0;bottom=0;right=0;collapsible=0;dropTarget=0;fillColor=none;points=[[0,0.5],[1,0.5]];portConstraint=eastwest;" vertex="1" parent="V2aYn66x58N84pKogv1D-39">
          <mxGeometry y="182" width="440" height="78" as="geometry" />
        </mxCell>
        <mxCell id="V2aYn66x58N84pKogv1D-75" value="Email Distribution" style="shape=partialRectangle;html=1;whiteSpace=wrap;connectable=0;fillColor=none;top=0;left=0;bottom=0;right=0;overflow=hidden;" vertex="1" parent="V2aYn66x58N84pKogv1D-74">
          <mxGeometry width="100" height="78" as="geometry">
            <mxRectangle width="100" height="78" as="alternateBounds" />
          </mxGeometry>
        </mxCell>
        <mxCell id="V2aYn66x58N84pKogv1D-76" value="Multiple distro groups&lt;br&gt;&amp;nbsp;(all notices also go to DataIssuesManagement)" style="shape=partialRectangle;html=1;whiteSpace=wrap;connectable=0;fillColor=none;top=0;left=0;bottom=0;right=0;overflow=hidden;" vertex="1" parent="V2aYn66x58N84pKogv1D-74">
          <mxGeometry x="100" width="150" height="78" as="geometry">
            <mxRectangle width="150" height="78" as="alternateBounds" />
          </mxGeometry>
        </mxCell>
        <mxCell id="V2aYn66x58N84pKogv1D-77" value="L1 - Assignee &amp;amp; Queue owner&lt;br&gt;L2 - Assignee&#39;s manager(s)&lt;br&gt;L3 - Assignee&#39;s director(s)" style="shape=partialRectangle;html=1;whiteSpace=wrap;connectable=0;fillColor=none;top=0;left=0;bottom=0;right=0;overflow=hidden;" vertex="1" parent="V2aYn66x58N84pKogv1D-74">
          <mxGeometry x="250" width="190" height="78" as="geometry">
            <mxRectangle width="190" height="78" as="alternateBounds" />
          </mxGeometry>
        </mxCell>
        <mxCell id="V2aYn66x58N84pKogv1D-78" style="shape=tableRow;horizontal=0;startSize=0;swimlaneHead=0;swimlaneBody=0;top=0;left=0;bottom=0;right=0;collapsible=0;dropTarget=0;fillColor=none;points=[[0,0.5],[1,0.5]];portConstraint=eastwest;" vertex="1" parent="V2aYn66x58N84pKogv1D-39">
          <mxGeometry y="260" width="440" height="48" as="geometry" />
        </mxCell>
        <mxCell id="V2aYn66x58N84pKogv1D-79" value="Email distribution configuration" style="shape=partialRectangle;html=1;whiteSpace=wrap;connectable=0;fillColor=none;top=0;left=0;bottom=0;right=0;overflow=hidden;" vertex="1" parent="V2aYn66x58N84pKogv1D-78">
          <mxGeometry width="100" height="48" as="geometry">
            <mxRectangle width="100" height="48" as="alternateBounds" />
          </mxGeometry>
        </mxCell>
        <mxCell id="V2aYn66x58N84pKogv1D-80" value="Manual" style="shape=partialRectangle;html=1;whiteSpace=wrap;connectable=0;fillColor=none;top=0;left=0;bottom=0;right=0;overflow=hidden;" vertex="1" parent="V2aYn66x58N84pKogv1D-78">
          <mxGeometry x="100" width="150" height="48" as="geometry">
            <mxRectangle width="150" height="48" as="alternateBounds" />
          </mxGeometry>
        </mxCell>
        <mxCell id="V2aYn66x58N84pKogv1D-81" value="Queue owners configure" style="shape=partialRectangle;html=1;whiteSpace=wrap;connectable=0;fillColor=none;top=0;left=0;bottom=0;right=0;overflow=hidden;" vertex="1" parent="V2aYn66x58N84pKogv1D-78">
          <mxGeometry x="250" width="190" height="48" as="geometry">
            <mxRectangle width="190" height="48" as="alternateBounds" />
          </mxGeometry>
        </mxCell>
      </root>
    </mxGraphModel>
  </diagram>
</mxfile>
